<svg width="1054" height="1054" xmlns="http://www.w3.org/2000/svg" clip-rule="evenodd">

  <g stroke="null" id="layer103">
   <path stroke="null" id="svg_2" fill="#00ffff" fill-rule="nonzero" d="m505.904706,328.632362c-40.484975,-12.478246 -31.611556,-72.928414 10.85448,-72.928414c14.142012,0 24.401903,5.823181 31.88885,18.301427c17.19225,28.006729 -10.81448,64.054995 -42.70333,54.626987z"/>
   <path stroke="null" id="svg_3" fill="#00ffff" fill-rule="nonzero" d="m333.704915,248.494295c-47.417334,-21.906254 -46.030862,-92.339018 1.94106,-112.304211c14.419306,-6.100476 38.821209,-5.545887 51.576749,0.831883c21.906254,11.369068 34.384499,31.611556 34.384499,55.736164c0,24.124608 -12.478246,44.367096 -34.384499,55.736164c-13.587423,6.932359 -38.543915,6.932359 -53.517809,0z"/>
   <path stroke="null" id="svg_4" fill="#00ffff" fill-rule="nonzero" d="m483.443864,140.349499c-34.661794,-15.528484 -41.316858,-60.172874 -12.478246,-84.574777c41.039564,-34.384499 100.380554,11.646363 77.919712,60.727463c-6.100476,13.310129 -12.200951,19.13331 -26.065669,24.956491c-13.310129,5.545887 -25.788374,5.268593 -39.375798,-1.109177z"/>
  </g>
</svg>
